<svg width="252" height="56" viewBox="0 0 252 56" fill="none" xmlns="http://www.w3.org/2000/svg">
<path d="M66.6751 40.8309C71.3142 40.8309 74.6463 38.4271 76.3363 34.9818C76.4246 34.8018 76.3359 34.5893 76.1453 34.5119L72.87 33.1798C72.6794 33.1024 72.4607 33.1899 72.3724 33.3699C71.374 35.4062 69.3972 36.8957 66.7569 36.8957C63.0759 36.8957 60.2946 34.0623 60.2946 30.5993C60.2946 27.0969 63.035 24.3029 66.6751 24.3029C69.2055 24.3029 71.2172 25.5863 72.2869 27.678C72.3774 27.8549 72.5946 27.9394 72.783 27.862L76.0281 26.5285C76.2164 26.4511 76.3049 26.2415 76.2185 26.0629C74.5908 22.6958 71.0746 20.3677 66.6751 20.3677C60.7036 20.3677 56 24.8145 56 30.5993C56 36.266 60.6218 40.8309 66.6751 40.8309Z" fill="#ffffff"/>
<path d="M79.6631 40.0796C79.6631 40.2772 79.8296 40.4374 80.0349 40.4374H83.6677C83.873 40.4374 84.0395 40.2772 84.0395 40.0796V12.3581C84.0395 12.1018 83.7675 11.9286 83.5223 12.0289L79.8895 13.5137C79.7522 13.5698 79.6631 13.6994 79.6631 13.8429V40.0796Z" fill="#ffffff"/>
<path d="M97.7387 40.8309C100.438 40.8309 103.015 39.6503 104.569 37.7221V40.0796C104.569 40.2772 104.736 40.4374 104.941 40.4374H108.574C108.779 40.4374 108.946 40.2772 108.946 40.0796V21.1189C108.946 20.9214 108.779 20.7612 108.574 20.7612H104.941C104.736 20.7612 104.569 20.9214 104.569 21.1189V23.3191C103.056 21.5089 100.479 20.3677 97.7796 20.3677C92.4216 20.3677 87.5544 24.3029 87.5544 30.5993C87.5544 36.8563 92.5443 40.8309 97.7387 40.8309ZM98.3522 36.9744C94.7121 36.9744 91.8899 34.141 91.8899 30.5599C91.8899 26.9789 94.7121 24.1848 98.3522 24.1848C102.074 24.1848 104.815 27.0576 104.815 30.5599C104.815 34.1016 102.074 36.9744 98.3522 36.9744Z" fill="#ffffff"/>
<path d="M113.373 40.0796C113.373 40.2772 113.54 40.4374 113.745 40.4374H117.419C117.624 40.4374 117.791 40.2772 117.791 40.0796V30.678C117.791 26.5853 119.304 24.7751 123.026 24.7751H125.313C125.518 24.7751 125.685 24.615 125.685 24.4174V21.1189C125.685 20.9214 125.518 20.7612 125.313 20.7612H123.721C120.858 20.7612 118.854 21.8631 117.75 23.87V21.1189C117.75 20.9214 117.583 20.7612 117.378 20.7612H113.745C113.54 20.7612 113.373 20.9214 113.373 21.1189V40.0796Z" fill="#ffffff"/>
<path d="M129.23 40.0796C129.23 40.2772 129.397 40.4374 129.602 40.4374H133.276C133.481 40.4374 133.648 40.2772 133.648 40.0796V21.1189C133.648 20.9214 133.481 20.7612 133.276 20.7612H129.602C129.397 20.7612 129.23 20.9214 129.23 21.1189V40.0796ZM128.494 14.8977C128.494 16.5505 129.68 17.7311 131.439 17.7311C133.157 17.7311 134.384 16.5505 134.384 14.8977C134.384 13.2449 133.157 12.0643 131.439 12.0643C129.721 12.0643 128.494 13.2449 128.494 14.8977Z" fill="#ffffff"/>
<path d="M145.385 40.8309C151.07 40.8702 153.81 37.4859 153.81 34.5345C153.81 30.4025 149.925 29.3007 146.489 28.5923C143.381 27.9233 141.622 27.6085 141.622 26.1918C141.622 24.8932 142.767 23.8307 145.18 23.8307C147.208 23.8307 148.663 24.5539 149.646 25.807C149.762 25.9548 149.972 26.0059 150.142 25.9173L153.161 24.3354C153.355 24.2339 153.415 23.9927 153.283 23.8229C151.561 21.6186 148.967 20.3283 145.18 20.3283C140.313 20.289 137.205 23.1617 137.205 26.2705C137.205 30.3238 140.886 31.4257 144.362 32.0947C146.98 32.6456 149.434 32.9998 149.434 34.6132C149.434 35.9906 148.125 37.1711 145.589 37.1711C143.264 37.1711 141.563 36.2878 140.382 34.6216C140.271 34.4649 140.055 34.4084 139.881 34.4988L136.601 36.2085C136.416 36.3046 136.351 36.529 136.463 36.6995C138.241 39.4069 141.13 40.8309 145.385 40.8309Z" fill="#ffffff"/>
<path d="M157.11 40.0796C157.11 40.2772 157.277 40.4374 157.482 40.4374H161.156C161.361 40.4374 161.528 40.2772 161.528 40.0796V21.1189C161.528 20.9214 161.361 20.7612 161.156 20.7612H157.482C157.277 20.7612 157.11 20.9214 157.11 21.1189V40.0796ZM156.374 14.8977C156.374 16.5505 157.56 17.7311 159.319 17.7311C161.037 17.7311 162.264 16.5505 162.264 14.8977C162.264 13.2449 161.037 12.0643 159.319 12.0643C157.601 12.0643 156.374 13.2449 156.374 14.8977Z" fill="#ffffff"/>
<path d="M175.187 40.8309C177.886 40.8309 180.504 39.611 182.058 37.6434V40.1226C182.058 43.5069 179.809 46.1435 176.087 46.1435C173.138 46.1435 171.22 44.9041 170.158 42.9292C170.062 42.7516 169.839 42.672 169.651 42.7578L166.278 44.2986C166.093 44.3831 166.013 44.5958 166.107 44.7707C167.734 47.7953 171.146 50 176.087 50C182.631 50 186.394 45.7499 186.394 39.9651V21.1189C186.394 20.9214 186.227 20.7612 186.022 20.7612H182.389C182.184 20.7612 182.017 20.9214 182.017 21.1189V23.4371C180.463 21.5482 177.927 20.3677 175.228 20.3677C169.87 20.3677 165.002 24.3029 165.002 30.5993C165.002 36.8563 169.992 40.8309 175.187 40.8309ZM175.8 36.9744C172.16 36.9744 169.338 34.141 169.338 30.5599C169.338 26.9789 172.16 24.1848 175.8 24.1848C179.522 24.1848 182.263 27.0576 182.263 30.5599C182.263 34.1016 179.522 36.9744 175.8 36.9744Z" fill="#ffffff"/>
<path d="M190.543 40.0796C190.543 40.2772 190.709 40.4374 190.915 40.4374H194.547C194.753 40.4374 194.919 40.2772 194.919 40.0796V29.6155C194.919 26.1525 197.169 24.0274 200.073 24.0274C203.386 24.0274 205.022 26.0738 205.022 29.34V40.0796C205.022 40.2772 205.188 40.4374 205.394 40.4374H209.108C209.314 40.4374 209.48 40.2772 209.48 40.0796V28.9465C209.48 23.5946 206.331 20.3677 201.177 20.3677C198.519 20.3677 196.269 21.5089 194.878 23.2404V12.3601C194.878 12.1033 194.605 11.9301 194.36 12.0313L190.768 13.5133C190.631 13.5696 190.543 13.699 190.543 13.8421V40.0796Z" fill="#ffffff"/>
<path d="M211.731 24.1813C211.731 24.3788 211.898 24.539 212.103 24.539H215.208V32.4095C215.208 38.5485 217.089 40.4374 223.306 40.4374H223.589C223.794 40.4374 223.96 40.2772 223.96 40.0796V36.8205C223.96 36.623 223.793 36.4631 223.588 36.4608C220.159 36.4219 219.625 35.7915 219.625 32.3701V24.539H223.589C223.794 24.539 223.96 24.3788 223.96 24.1813V21.1189C223.96 20.9214 223.794 20.7612 223.589 20.7612H219.625V14.1449C219.625 13.8891 219.354 13.7159 219.109 13.8152L215.435 15.3028C215.297 15.3586 215.208 15.4886 215.208 15.6325V20.7612H212.103C211.898 20.7612 211.731 20.9214 211.731 21.1189V24.1813Z" fill="#ffffff"/>
<path d="M235.574 40.8309C241.26 40.8702 244 37.4859 244 34.5345C244 30.4025 240.114 29.3007 236.679 28.5923C233.57 27.9233 231.812 27.6085 231.812 26.1918C231.812 24.8932 232.957 23.8307 235.37 23.8307C237.398 23.8307 238.853 24.5539 239.836 25.807C239.952 25.9548 240.162 26.0059 240.331 25.9173L243.351 24.3354C243.545 24.2339 243.605 23.9927 243.473 23.8229C241.75 21.6186 239.156 20.3283 235.37 20.3283C230.503 20.289 227.394 23.1617 227.394 26.2705C227.394 30.3238 231.075 31.4257 234.552 32.0947C237.17 32.6456 239.624 32.9998 239.624 34.6132C239.624 35.9906 238.315 37.1711 235.779 37.1711C233.454 37.1711 231.753 36.2878 230.571 34.6216C230.46 34.4649 230.244 34.4084 230.071 34.4988L226.79 36.2085C226.606 36.3046 226.54 36.529 226.652 36.6995C228.431 39.4069 231.319 40.8309 235.574 40.8309Z" fill="#ffffff"/>
<path d="M30.5601 30.02C30.2839 30.02 30.0601 30.2439 30.0601 30.52V47.3464C30.0601 47.6421 30.3162 47.8736 30.6095 47.8364C39.6433 46.6914 46.6966 39.6046 47.8403 30.5695C47.8775 30.2762 47.646 30.02 47.3503 30.02H30.5601Z" fill="#0A8577"/>
<path d="M30 25.48V8.6498C30 8.35412 30.2562 8.12258 30.5495 8.15985C39.5671 9.30547 46.6899 16.3957 47.8364 25.4306C47.8736 25.7238 47.6421 25.98 47.3464 25.98H30.5C30.2239 25.98 30 25.7561 30 25.48Z" fill="#9F3852"/>
<path d="M26 47.3467V8.64939C26 8.35385 25.7439 8.12239 25.4507 8.15941C15.5775 9.40592 8 17.769 8 28C8 38.231 15.5775 46.5903 25.4507 47.8367C25.7439 47.8737 26 47.6422 26 47.3467Z" fill="#FBBE37"/>
</svg>
